<?xml version="1.0" standalone="no"?>
<!DOCTYPE svg PUBLIC "-//W3C//DTD SVG 20010904//EN"
 "http://www.w3.org/TR/2001/REC-SVG-20010904/DTD/svg10.dtd">
<svg version="1.0" xmlns="http://www.w3.org/2000/svg"
 width="512.000000pt" height="512.000000pt" viewBox="0 0 512.000000 512.000000"
 preserveAspectRatio="xMidYMid meet">
<metadata>
Created by potrace 1.14, written by Peter Selinger 2001-2017
</metadata>
<g transform="translate(0.000000,512.000000) scale(0.100000,-0.100000)"
fill="#000000" stroke="none">
<path d="M2378 5115 c-2 -1 -39 -5 -82 -9 -44 -4 -82 -9 -85 -11 -4 -2 -34 -7
-66 -10 -117 -14 -472 -111 -499 -136 -6 -5 -16 -9 -23 -9 -15 0 -131 -52
-228 -101 -238 -122 -485 -304 -665 -491 l-55 -58 -75 103 c-98 134 -216 265
-290 322 -132 102 -244 97 -292 -13 -54 -122 23 -394 223 -790 l69 -135 -26
-46 c-77 -137 -195 -460 -218 -594 -3 -15 -7 -35 -10 -45 -3 -9 -7 -34 -11
-56 -3 -21 -7 -41 -9 -45 -4 -6 -12 -72 -26 -201 -8 -81 -5 -459 5 -500 3 -14
8 -50 11 -80 3 -30 9 -73 14 -95 5 -22 12 -56 15 -75 22 -128 101 -377 162
-510 105 -231 214 -408 372 -603 117 -145 344 -352 515 -471 326 -226 739
-387 1106 -432 30 -3 66 -8 80 -11 14 -2 122 -6 240 -8 362 -6 634 43 960 171
361 143 686 365 954 655 287 309 512 729 601 1124 9 39 20 86 25 105 36 140
57 554 38 750 -57 572 -306 1110 -708 1529 -39 41 -42 48 -45 110 -9 151 -109
287 -253 342 -69 26 -169 32 -236 14 l-50 -13 -127 64 c-69 35 -130 64 -134
64 -4 0 -21 6 -38 14 -137 62 -421 138 -607 162 -25 3 -56 8 -70 10 -27 6
-456 14 -462 9z"/>
</g>
</svg>
